<?xml version="1.0" encoding="UTF-8"?>
<svg id="Layer_1" xmlns="http://www.w3.org/2000/svg" version="1.1" viewBox="0 0 32 32">
  <!-- Generator: Adobe Illustrator 30.0.0, SVG Export Plug-In . SVG Version: 2.1.1 Build 123)  -->
  <defs>
    <style>
      .st0 {
        fill: #6eed4a;
      }

      .st1 {
        opacity: .6;
      }

      .st2 {
        fill: #54c638;
      }

      .st3 {
        fill: #3a682e;
      }

      .st4 {
        fill: #294c22;
      }
    </style>
  </defs>
  <path class="st4" d="M16,.04C7.16.04,0,7.2,0,16.02s7.16,15.98,16,15.98,16-7.15,16-15.98c0-8.83-7.16-15.98-16-15.98Z"/>
  <path class="st3" d="M32,16.1s0-.05,0-.08c0-.02,0-.03,0-.05h-.94v-2.86h.68s-.02-.09-.03-.13h-.65v-2.37c-.04-.12-.08-.23-.13-.34v2.72h-2.87v-2.87h2.81s-.04-.09-.05-.13h-2.76v-2.87h1.23s-.06-.09-.09-.13h-1.14v-1.47s-.09-.1-.13-.15v1.61h-2.87v-2.87h1.62s-.1-.09-.15-.13h-1.47v-1.14s-.09-.06-.13-.09v1.23h-2.87V1.23s-.09-.04-.13-.05v2.82h-2.87V1.13h2.74c-.11-.04-.23-.09-.34-.13h-2.4V.34s-.09-.02-.13-.02v.69h-2.87V.04s-.04,0-.06,0c-.02,0-.05,0-.07,0v.95h-2.87V.31s-.09.02-.13.02v.66h-2.39c-.11.04-.23.08-.34.13h2.73v2.87h-2.87V1.18s-.09.04-.13.05v2.76h-2.87v-1.23s-.09.06-.13.09v1.14h-1.47s-.1.09-.15.13h1.61v2.87h-2.87v-1.61s-.09.1-.13.15v1.46h-1.13s-.06.09-.09.13h1.22v2.87H1.18s-.04.09-.05.13h2.81v2.87H1.07v-2.7c-.04.11-.09.23-.13.35v2.36H.29s-.02.09-.03.13h.67v2.86H0s0,.03,0,.05c0,.03,0,.05,0,.08h.94v2.86H.27s.02.09.03.13h.64v2.32c.04.12.08.23.13.35v-2.67h2.87v2.86H1.14s.04.09.05.13h2.74v2.86h-1.2s.06.09.09.13h1.11v1.43s.09.1.13.15v-1.57h2.87v2.87h-1.58s.1.09.15.13h1.43v1.11s.09.06.13.09v-1.2h2.87v2.73s.09.04.13.05v-2.78h2.87v2.87h-2.65c.12.04.23.09.35.13h2.3v.63s.09.02.13.02v-.65h2.87v.92s.05,0,.07,0c.02,0,.04,0,.06,0v-.92h2.87v.65s.09-.02.13-.02v-.63h2.31c.12-.04.23-.08.35-.13h-2.66v-2.87h2.87v2.78s.09-.04.13-.05v-2.73h2.87v1.2s.09-.06.13-.09v-1.11h1.44s.1-.09.15-.13h-1.58v-2.87h2.87v1.58s.09-.1.13-.15v-1.44h1.12s.06-.09.09-.13h-1.21v-2.86h2.75s.04-.09.05-.13h-2.8v-2.86h2.87v2.68c.04-.11.09-.23.13-.34v-2.34h.65s.02-.09.03-.13h-.67v-2.86h.94ZM3.94,18.97H1.07v-2.86h2.87v2.86ZM3.94,15.97H1.07v-2.86h2.87v2.86ZM6.94,24.96h-2.87v-2.86h2.87v2.86ZM6.94,21.96h-2.87v-2.86h2.87v2.86ZM6.94,18.97h-2.87v-2.86h2.87v2.86ZM6.94,15.97h-2.87v-2.86h2.87v2.86ZM6.94,12.98h-2.87v-2.87h2.87v2.87ZM6.94,9.98h-2.87v-2.87h2.87v2.87ZM9.93,27.95h-2.87v-2.87h2.87v2.87ZM9.93,24.96h-2.87v-2.86h2.87v2.86ZM9.93,21.96h-2.87v-2.86h2.87v2.86ZM9.93,18.97h-2.87v-2.86h2.87v2.86ZM9.93,15.97h-2.87v-2.86h2.87v2.86ZM9.93,12.98h-2.87v-2.87h2.87v2.87ZM9.93,9.98h-2.87v-2.87h2.87v2.87ZM9.93,6.99h-2.87v-2.87h2.87v2.87ZM12.93,27.95h-2.87v-2.87h2.87v2.87ZM12.93,24.96h-2.87v-2.86h2.87v2.86ZM12.93,21.96h-2.87v-2.86h2.87v2.86ZM12.93,18.97h-2.87v-2.86h2.87v2.86ZM12.93,15.97h-2.87v-2.86h2.87v2.86ZM12.93,12.98h-2.87v-2.87h2.87v2.87ZM12.93,9.98h-2.87v-2.87h2.87v2.87ZM12.93,6.99h-2.87v-2.87h2.87v2.87ZM15.93,30.95h-2.87v-2.87h2.87v2.87ZM15.93,27.95h-2.87v-2.87h2.87v2.87ZM15.93,24.96h-2.87v-2.86h2.87v2.86ZM15.93,21.96h-2.87v-2.86h2.87v2.86ZM15.93,18.97h-2.87v-2.86h2.87v2.86ZM15.93,15.97h-2.87v-2.86h2.87v2.86ZM15.93,12.98h-2.87v-2.87h2.87v2.87ZM15.93,9.98h-2.87v-2.87h2.87v2.87ZM15.93,6.99h-2.87v-2.87h2.87v2.87ZM15.93,3.99h-2.87V1.13h2.87v2.87ZM18.93,30.95h-2.87v-2.87h2.87v2.87ZM18.93,27.95h-2.87v-2.87h2.87v2.87ZM18.93,24.96h-2.87v-2.86h2.87v2.86ZM18.93,21.96h-2.87v-2.86h2.87v2.86ZM18.93,18.97h-2.87v-2.86h2.87v2.86ZM18.93,15.97h-2.87v-2.86h2.87v2.86ZM18.93,12.98h-2.87v-2.87h2.87v2.87ZM18.93,9.98h-2.87v-2.87h2.87v2.87ZM18.93,6.99h-2.87v-2.87h2.87v2.87ZM18.93,3.99h-2.87V1.13h2.87v2.87ZM21.93,27.95h-2.87v-2.87h2.87v2.87ZM21.93,24.96h-2.87v-2.86h2.87v2.86ZM21.93,21.96h-2.87v-2.86h2.87v2.86ZM21.93,18.97h-2.87v-2.86h2.87v2.86ZM21.93,15.97h-2.87v-2.86h2.87v2.86ZM21.93,12.98h-2.87v-2.87h2.87v2.87ZM21.93,9.98h-2.87v-2.87h2.87v2.87ZM21.93,6.99h-2.87v-2.87h2.87v2.87ZM24.93,27.95h-2.87v-2.87h2.87v2.87ZM24.93,24.96h-2.87v-2.86h2.87v2.86ZM24.93,21.96h-2.87v-2.86h2.87v2.86ZM24.93,18.97h-2.87v-2.86h2.87v2.86ZM24.93,15.97h-2.87v-2.86h2.87v2.86ZM24.93,12.98h-2.87v-2.87h2.87v2.87ZM24.93,9.98h-2.87v-2.87h2.87v2.87ZM24.93,6.99h-2.87v-2.87h2.87v2.87ZM27.93,24.96h-2.87v-2.86h2.87v2.86ZM27.93,21.96h-2.87v-2.86h2.87v2.86ZM27.93,18.97h-2.87v-2.86h2.87v2.86ZM27.93,15.97h-2.87v-2.86h2.87v2.86ZM27.93,12.98h-2.87v-2.87h2.87v2.87ZM27.93,9.98h-2.87v-2.87h2.87v2.87ZM30.93,18.97h-2.87v-2.86h2.87v2.86ZM30.93,15.97h-2.87v-2.86h2.87v2.86Z"/>
  <g>
    <path class="st4" d="M14.68,16.12c.05.65.57,1.18,1.23,1.22v-1.22h-1.23Z"/>
    <path class="st4" d="M14.68,15.92h1.23v-1.22c-.65.05-1.18.57-1.23,1.22Z"/>
    <path class="st4" d="M16.1,16.12v1.22c.65-.05,1.18-.57,1.23-1.22h-1.23Z"/>
    <path class="st4" d="M16.1,14.7v1.22h1.23c-.05-.65-.57-1.18-1.23-1.22Z"/>
  </g>
  <path class="st2" d="M32,15.92h-2.74c-.05-7.22-5.93-13.09-13.16-13.14V.04s-.06,0-.1,0-.06,0-.1,0v2.74c-7.23.05-13.11,5.92-13.16,13.14H0S0,15.99,0,16.02s0,.06,0,.1h2.74c.05,7.22,5.93,13.09,13.16,13.14v2.74s.06,0,.1,0,.06,0,.1,0v-2.74c7.23-.05,13.11-5.92,13.16-13.14h2.74s0-.06,0-.1c0-.03,0-.06,0-.1ZM15.9,29.07c-7.13-.05-12.92-5.83-12.97-12.95h3.03c.05,5.45,4.48,9.87,9.94,9.92v3.03ZM15.9,25.85c-5.35-.05-9.69-4.39-9.74-9.73h2.9c.05,3.74,3.09,6.78,6.84,6.83v2.9ZM15.9,22.76c-3.64-.05-6.6-3-6.65-6.64h2.61c.05,2.2,1.83,3.98,4.03,4.03v2.61h0ZM15.9,19.95c-2.1-.05-3.79-1.74-3.84-3.84h2.42c.05.76.66,1.37,1.42,1.42v2.42ZM15.9,17.34c-.65-.05-1.18-.57-1.23-1.22h1.23v1.22ZM15.9,15.92h-1.23c.05-.65.57-1.18,1.23-1.22v1.22ZM15.9,14.51c-.76.05-1.37.66-1.42,1.42h-2.42c.05-2.09,1.75-3.78,3.84-3.84v2.42ZM15.9,11.9c-2.2.05-3.98,1.83-4.03,4.03h-2.61c.05-3.64,3-6.59,6.65-6.64v2.61h0ZM15.9,9.09c-3.75.05-6.79,3.09-6.84,6.83h-2.9c.05-5.34,4.39-9.68,9.74-9.73v2.9h0ZM15.9,6c-5.46.05-9.88,4.47-9.94,9.92h-3.03c.05-7.12,5.84-12.9,12.97-12.95v3.03ZM16.1,6.19c5.35.05,9.69,4.39,9.74,9.73h-2.9c-.05-3.74-3.09-6.78-6.84-6.83v-2.9h0ZM16.1,9.29c3.64.05,6.6,3,6.65,6.64h-2.61c-.05-2.2-1.83-3.98-4.03-4.03v-2.61h0ZM16.1,12.09c2.1.05,3.79,1.74,3.84,3.84h-2.42c-.05-.76-.66-1.37-1.42-1.42v-2.42h0ZM16.1,14.7c.65.05,1.18.57,1.23,1.22h-1.23v-1.22ZM16.1,16.12h1.23c-.05.65-.57,1.18-1.23,1.22v-1.22h0ZM16.1,17.54c.76-.05,1.37-.66,1.42-1.42h2.42c-.05,2.09-1.74,3.78-3.84,3.84v-2.42h0ZM16.1,20.15c2.2-.05,3.98-1.83,4.03-4.03h2.61c-.05,3.64-3,6.59-6.65,6.64v-2.61ZM16.1,22.95c3.75-.05,6.79-3.09,6.84-6.83h2.9c-.05,5.34-4.39,9.68-9.74,9.73v-2.9h0ZM16.1,29.07v-3.03c5.46-.05,9.88-4.47,9.94-9.92h3.03c-.05,7.12-5.84,12.9-12.97,12.95ZM26.03,15.92c-.05-5.45-4.48-9.87-9.94-9.92v-3.03c7.13.05,12.92,5.83,12.97,12.95h-3.03Z"/>
  <path class="st0" d="M21.12.88l-5.15,15.21L21.89,1.17c-.25-.1-.51-.2-.77-.29Z"/>
  <g class="st1">
    <path class="st0" d="M15.96,0v16.09L21.12.88c-1.62-.56-3.35-.87-5.15-.88Z"/>
  </g>
  <g>
    <circle class="st0" cx="6.65" cy="19.21" r=".84"/>
    <circle class="st0" cx="24.12" cy="21.79" r=".84"/>
  </g>
</svg>