<?xml version="1.0" encoding="UTF-8"?>
<svg id="Laag_1" data-name="Laag 1" xmlns="http://www.w3.org/2000/svg" viewBox="0 0 82.9 90.71">
  <defs>
    <style>
      .cls-1 {
        fill: #ca1517;
      }

      .cls-2 {
        fill: #fff;
      }

      .cls-3 {
        fill: #3a3e49;
      }
    </style>
  </defs>
  <polygon class="cls-1" points="56.65 48.21 56.77 56.32 61.3 53.54 61.27 45.34 56.65 48.21"/>
  <path class="cls-1" d="M54.25,65.04l.02,3.41h3.56s-.06-3.62-.06-3.62c-.01-.95-1.11-1.77-1.94-1.69-.86.08-1.59,1-1.58,1.89Z"/>
  <polygon class="cls-1" points="55.16 49.15 42.27 57.44 23.47 45.32 23.46 53.61 42.28 65.69 55.21 57.41 55.16 49.15"/>
  <path class="cls-1" d="M42.26,23.94l-24.37,15.77,24.39,15.77,12.18-7.83-12.57-8.22c-.25-.24-.44-.8-.3-1.06.12-.24.68-.38,1.16-.35l13.19,8.64,10.73-6.97-11.82-7.64-12.59-8.1Z"/>
  <path class="cls-3" d="M75.58,17.36L49.78,2.29c-5.22-3.05-11.37-3.04-16.57-.06L7.59,16.93C2.76,20.15-.02,25.1,0,30.93l.11,30.31c.02,4.94,3.21,9.8,7.41,12.25l25.85,15.04c5.05,2.94,11.14,2.89,16.29-.1l25.5-14.77c4.75-2.75,7.74-7.95,7.74-13.46v-29.78c0-5.16-2.83-10.45-7.32-13.07ZM80.57,60c0,5-2.59,9.36-6.87,11.82l-24.64,14.19c-4.41,2.54-9.64,3.06-14.07.49l-25.86-14.98c-4.01-2.32-6.7-6.59-6.7-11.27v-30.05c0-4.74,2.48-9.03,6.58-11.39l25.8-14.79c4.55-2.61,9.72-2.13,14.12.42l24.64,14.31c4.31,2.5,7.04,6.85,7.04,11.95l-.04,29.3Z"/>
  <path class="cls-2" d="M68.53,38.97l-24.33-15.74c-.71-.46-1.37-.91-2.22-.99l-25.79,16.57c-.32.21-.68.62-.67.89s.36.77.6.92l5.69,3.66v10.2s20.41,13.09,20.41,13.09l12.79-8.1c.14.73.16,1.42.12,2.12-1.57.46-2.5,1.67-2.52,3.23l-.04,4.38c0,.41.52.9.89.9l5.75-.03.07-5.5c.02-1.45-1.15-2.59-2.56-2.95l-.04-3.17,6.24-4.11v-10.17s5.66-3.59,5.66-3.59c.25-.16.61-.61.59-.87-.02-.22-.35-.56-.63-.74ZM42.28,65.69l-18.82-12.08v-8.29s18.81,12.12,18.81,12.12l12.89-8.29.05,8.26-12.93,8.27ZM57.77,64.84l.06,3.61h-3.56s-.02-3.41-.02-3.41c0-.9.73-1.81,1.58-1.89.83-.08,1.93.74,1.94,1.69ZM56.77,56.32l-.12-8.11,4.61-2.86.04,8.2-4.53,2.77ZM55.93,46.64l-13.19-8.64c-.48-.02-1.03.11-1.16.35-.13.26.05.83.3,1.06l12.57,8.22-12.18,7.83-24.39-15.77,24.37-15.77,12.59,8.1,11.82,7.64-10.73,6.97Z"/>
  <path class="cls-1" d="M73.57,18.75l-24.64-14.31c-4.4-2.55-9.57-3.03-14.12-.42l-25.8,14.79c-4.11,2.35-6.58,6.65-6.58,11.39v30.05c0,4.68,2.69,8.95,6.7,11.27l25.86,14.98c4.43,2.56,9.66,2.04,14.07-.49l24.64-14.19c4.28-2.46,6.86-6.82,6.87-11.82l.04-29.3c0-5.1-2.72-9.45-7.04-11.95ZM68.57,40.58l-5.66,3.59v10.17s-6.23,4.11-6.23,4.11l.04,3.17c1.41.36,2.58,1.51,2.56,2.95l-.07,5.5-5.75.03c-.37,0-.89-.49-.89-.9l.04-4.38c.02-1.56.95-2.77,2.52-3.23.05-.7.03-1.4-.12-2.12l-12.79,8.1-20.41-13.09v-10.2s-5.69-3.66-5.69-3.66c-.24-.16-.59-.66-.6-.92s.34-.68.67-.89l25.79-16.57c.84.08,1.51.53,2.22.99l24.33,15.74c.28.18.61.52.63.74.02.26-.34.71-.59.87Z"/>
</svg>