<?xml version="1.0" encoding="UTF-8"?>
<svg id="Laag_1" data-name="Laag 1" xmlns="http://www.w3.org/2000/svg" viewBox="0 0 82.9 90.71">
  <defs>
    <style>
      .cls-1 {
        fill: #3a3e49;
      }

      .cls-2 {
        fill: #e4072e;
      }
    </style>
  </defs>
  <path class="cls-1" d="M49.66,88.44c-5.15,2.99-11.24,3.04-16.29.1l-25.85-15.04C3.32,71.04.13,66.19.11,61.25L0,30.93c-.02-5.83,2.76-10.78,7.59-14.01L33.2,2.23c5.2-2.99,11.36-2.99,16.57.06l25.8,15.07c4.49,2.62,7.31,7.91,7.31,13.07v29.78c0,5.51-2.98,10.71-7.73,13.46l-25.5,14.77ZM49.06,86.01l24.64-14.19c4.28-2.46,6.86-6.82,6.87-11.82l.04-29.3c0-5.1-2.72-9.45-7.04-11.95l-24.64-14.31c-4.4-2.55-9.57-3.03-14.12-.42l-25.8,14.79c-4.11,2.35-6.58,6.65-6.58,11.39v30.05c0,4.68,2.69,8.95,6.7,11.27l25.86,14.98c4.43,2.56,9.66,2.04,14.07-.49Z"/>
  <path class="cls-2" d="M53.46,70.1c-.37,0-.89-.49-.89-.9l.04-4.38c.02-1.56.95-2.77,2.52-3.23.05-.7.03-1.4-.12-2.12l-12.79,8.1-20.41-13.09v-10.2s-5.69-3.66-5.69-3.66c-.24-.16-.59-.66-.6-.92s.34-.68.67-.89l25.79-16.57c.84.08,1.51.53,2.22.99l24.33,15.74c.28.18.61.52.63.74.02.26-.34.71-.59.87l-5.66,3.59v10.17s-6.23,4.11-6.23,4.11l.04,3.17c1.41.36,2.58,1.51,2.56,2.95l-.07,5.5-5.75.03ZM42.74,38l13.19,8.64,10.73-6.97-11.82-7.64-12.59-8.1-24.37,15.77,24.39,15.77,12.18-7.83-12.57-8.22c-.25-.24-.44-.8-.3-1.06.12-.24.68-.38,1.16-.36ZM55.21,57.41l-.05-8.26-12.89,8.29-18.81-12.12v8.29s18.81,12.08,18.81,12.08l12.93-8.27ZM56.77,56.32l4.53-2.77-.04-8.2-4.61,2.86.12,8.11ZM57.82,68.45l-.06-3.61c-.01-.95-1.11-1.77-1.94-1.69s-1.59,1-1.58,1.89l.02,3.41h3.56Z"/>
</svg>